<svg viewBox="716.0419790104949 635.4000000000001 575.712143928036 255.00000000000003" xmlns:xlink="http://www.w3.org/1999/xlink" version="1.1" xmlns="http://www.w3.org/2000/svg" style="max-height: 500px" width="575.712143928036" height="255.00000000000003"><rect fill="#ffffff" height="1500" width="2000"/><g transform="matrix(0.4444444444444444,0,0,0.4444444444444444,555.5556208333335,250)"><svg xmlns:xlink="http://www.w3.org/1999/xlink" xmlns="http://www.w3.org/2000/svg" width="2000" height="2250" preserveAspectRatio="xMidYMid meet" data-background-color="#ffffff" viewBox="0 0 320 360"><g transform="matrix(1,0,0,1,0.000023499999997511622,0)" id="tight-bounds"><svg width="320" height="360" viewBox="0 0 320 360"><g><svg/></g><g><svg width="320" height="360" viewBox="0 0 320 360"><g><path data-fill-palette-color="tertiary" style="mix-blend-mode: normal" text-anchor="none" font-size="none" font-weight="none" font-family="none" stroke-dashoffset="0" stroke-dasharray="" stroke-miterlimit="10" stroke-linejoin="miter" stroke-linecap="butt" stroke-width="1" stroke="none" fill-rule="nonzero" fill="#ffffff" d="M20.6 59.9l0.8 1-0.4-1.3c-0.1-0.6-0.8 0.1-0.4 0.3M21.5 59.3c0.3 0.5 0.6 1 0.6 1.5 0 0.7 0.6 1 1.1 1.2-0.7-0.8-1.1-3-1.7-2.7M59.9 16.9c1.7 0 3.3-0.2 5.1 0.2 4.4 1.1 8.1 3.3 10.6 6.4l7 11.2c0.3 2.8 0.9 5.9 0.8 9.3 0.7 0 0.6-1 1.4-1.2-0.8 2-1.2 4.5-1.4 7.4-0.5-1.6 0-4 0.1-5.3-0.7 1.1-1.1 0.3-1.1-0.2 0.1-0.8-0.3-0.7-0.6-1-1.1-1-1.8-2.1-2.6-3.8 0.5-1.3 0.6-3.2-1-4.2-0.5-0.3-1.1-0.8-1.4-1.6-0.4-1.1-1.1-2.4-0.9-4.1 0.1-0.5-1.5 1.1-2.4 0.4-3.9-2.7-7.8-5.8-12.5-8.4-2.5 0-4.3-0.9-5.2-2-0.8-1-0.2-2.3 1-2.4 0.7 0 1.5-0.2 2.1 0.2 0.1-0.4 0.5-0.9 1-0.9M50 14.6l0.2 0.1c1 0.2 1.5 1.6 2.6 1.1 0 0.7 0.1 1.4-0.1 1.9-0.3 0.8-1.2 0.8-1.9 0.8-6.7-0.4-10.6 2.4-14.7 4.8-1.1 0.7-2.3 1.2-3.2 2.1-4.3 4-9 7.7-10.1 15.1l-0.9 8.2c-0.1 0.9-1.1 1.8-0.9 2.9l0.7 4.9c-0.7-0.7-1.1 0.2-0.9 0.6 0.1 0.3 0.5 1.3 1.1 0.4 0.8 1.5 1.6 4.4 2.7 5.7 3.4 4 7.8 7.6 11.4 11.2 0.9-0.2 1.6-0.2 1.8-0.8 0.3 0.6-0.3 1.2-0.8 1.3 1.6 1 3.4 1.9 5.8 2.1 3.1 0.2 6 0.7 8.7 1.4 1.4-0.4 2.8-0.6 4.3-0.7 0.5 0 0.8-0.8 1.4-1l0.1-1c0.6 0.9 0.5-0.3 0.1-0.9 0.7 0.6 0.9 1.1 1.2 1.5 0-0.3 0.8-1.4 0.8-0.1l0.2-1.3c0.3-0.2 0.4 1.1 0.7 0.2 0.3-0.9 0.9-0.2 1.5-0.5-0.2 0.4-0.1 1.2 0.6 0.7l0.8-0.7c0.5 1.2 1.3 0.7 1.7 0.5 4.4-2.8 8.8-6.1 13-9.4l-0.1 1.3 0.5-1.6c0.5 0.5 0.9 0.1 1.1-0.2 0.6-1 1.4-2 2.7-2.9-1.6 4.3-3.5 7.7-5.9 10.5l-1 1.2c0 0.7-0.2 1.6-1 1.7-0.4 0.1-1.2-0.2-1.8 0.4-0.3 0.4 0.7 1.2-0.1 0.6-0.7-0.5-1.4 0-2.2 0.2-0.6 0.2 0.4 0.8 0.6 1.2 0.2 0.4 0.4 0.8 0.3 1.3l-1.1-1.2c-1.3 0.7-2.1 2-3.2 3-0.5 0.4-0.3 1.1-0.3 1.7-0.7 0-1.5-0.2-1.9 0.2-0.3 0.4-0.2 1-0.2 1.6-1-0.1-1.1-1.6-2-1.3-0.9 0.2-1.9 0.3-2.7 0.8 0.6 1.2-1 0.5-0.8 0.7-1.5-0.9-2.8-1.6-4.4-1-3.4-1.1-7.6-0.6-10.7-0.2 0-0.5 0.1-1-0.1-1.1-0.2 0.5-0.8 0.3-0.7 0.3-1.9-1.3-3.8-2.1-5.8-3.2-1.8 0.2-3.5-0.7-4-1.2-1.4-1.3-3-0.6-4.3-0.9-2.8-0.7-3.8-3.6-4.1-5.6-0.2-1-1-1.4-1.3-1.3-1.3-4.2-3.3-8-4.9-11.9-0.4-1-0.3-2-0.3-3.1 0.5 0.2 1 0.1 0.9-0.6-0.5-3.3-1.7-5.8-3-8.2 0.7-3.4 0.8-7.4 2.4-10.4 1.4-2.7 4-4.1 5.8-6.4 0.6-0.8 0.6-1.9 1.2-2.6 2-2 4-4.1 6.2-5.9 1-0.8 2.2 0 3.7-0.3 0.5-1.8 2.5-3.4 4.4-2.9 0.8 0.2 2.4-1.9 2.9-2.1 0.8-0.3 0.4 0.8 0.4 1.5 1.9-1.5 4.5-2.3 6.9-3.2" transform="translate(-74.99272,-51.79039) scale(4.65793,4.65793)"/></g><g transform="matrix(1,0,0,1,64,147.75281957069848)"><svg width="192" height="64.49436085860306" viewBox="0 0 192 64.49436085860306"><g><svg width="192" height="64.49436085860306" viewBox="0 0 192 64.49436085860306"><g><svg width="192" height="64.49436085860306" viewBox="0 0 192 64.49436085860306"><g transform="matrix(1,0,0,1,0,38.98158402725724)"><svg width="192" height="25.51277683134582" viewBox="0 0 192 25.51277683134582"><g id="textblocktransform"><svg id="textblock" width="192" height="25.51277683134582" viewBox="0 0 192 25.51277683134582"><g><svg width="192" height="25.51277683134582" viewBox="0 0 192 25.51277683134582"><g transform="matrix(1,0,0,1,0,0)"><svg data-palette-color="#a437db" height="25.51277683134582" viewBox="4.38 -31.88 244.56 32.51" width="192"><path id="text-0" data-fill-palette-color="primary" class="wordmark-text-0" fill="#396f78" transform="matrix(1,0,0,1,0,0)" opacity="1" d="M14.62 0L4.38 0 4.38-31.25 14.62-31.25Q18.85-31.25 22-29.86 25.14-28.47 27.19-26.18 29.24-23.89 30.24-21.13 31.25-18.37 31.25-15.63L31.25-15.63Q31.25-12.88 30.24-10.12 29.24-7.36 27.19-5.07 25.14-2.78 22-1.39 18.85 0 14.62 0L14.62 0ZM8.33-27.71L8.33-3.54 14.2-3.54Q17.81-3.54 20.28-4.67 22.74-5.8 24.27-7.62 25.8-9.44 26.48-11.56 27.15-13.68 27.15-15.63L27.15-15.63Q27.15-17.57 26.48-19.69 25.8-21.81 24.27-23.63 22.74-25.45 20.28-26.58 17.81-27.71 14.2-27.71L14.2-27.71 8.33-27.71ZM46.18 0.42L46.18 0.42Q43.16 0.42 40.66-1.04 38.16-2.5 36.68-4.97 35.21-7.43 35.21-10.42L35.21-10.42Q35.21-13.44 36.68-15.89 38.16-18.33 40.66-19.79 43.16-21.25 46.18-21.25L46.18-21.25Q49.23-21.25 51.72-19.79 54.2-18.33 55.67-15.89 57.15-13.44 57.15-10.42L57.15-10.42Q57.15-7.43 55.67-4.97 54.2-2.5 51.72-1.04 49.23 0.42 46.18 0.42ZM46.18-3.13L46.18-3.13Q48.19-3.13 49.82-4.11 51.46-5.1 52.43-6.75 53.4-8.4 53.4-10.42L53.4-10.42Q53.4-12.43 52.43-14.08 51.46-15.73 49.82-16.72 48.19-17.71 46.18-17.71L46.18-17.71Q44.16-17.71 42.53-16.72 40.9-15.73 39.93-14.08 38.96-12.43 38.96-10.42L38.96-10.42Q38.96-8.4 39.93-6.75 40.9-5.1 42.53-4.11 44.16-3.13 46.18-3.13ZM71.94 0.42L71.94 0.42Q68.88 0.42 66.38-1.04 63.88-2.5 62.39-4.97 60.9-7.43 60.9-10.42L60.9-10.42Q60.9-13.4 62.39-15.87 63.88-18.33 66.38-19.79 68.88-21.25 71.94-21.25L71.94-21.25Q74.2-21.25 76.18-20.45 78.15-19.65 79.65-18.33L79.65-18.33 78.5-13.61Q77.63-15.35 75.88-16.53 74.13-17.71 71.9-17.71L71.9-17.71Q69.89-17.71 68.24-16.72 66.59-15.73 65.62-14.08 64.65-12.43 64.65-10.42L64.65-10.42Q64.65-8.44 65.62-6.77 66.59-5.1 68.24-4.11 69.89-3.13 71.9-3.13L71.9-3.13Q74.13-3.13 75.88-4.27 77.63-5.42 78.5-7.22L78.5-7.22 79.65-2.5Q78.15-1.18 76.18-0.38 74.2 0.42 71.94 0.42ZM99.3 0.63L99.3 0.63Q95.93 0.63 92.96-0.64 89.99-1.91 87.75-4.13 85.51-6.35 84.25-9.31 82.98-12.26 82.98-15.63L82.98-15.63Q82.98-18.99 84.25-21.94 85.51-24.9 87.75-27.12 89.99-29.34 92.96-30.61 95.93-31.88 99.3-31.88L99.3-31.88Q102.63-31.88 105.55-30.64 108.46-29.41 110.69-27.26L110.69-27.26 109.54-22.47Q107.94-25.03 105.25-26.58 102.56-28.13 99.3-28.13L99.3-28.13Q95.86-28.13 93.1-26.44 90.34-24.76 88.71-21.93 87.08-19.1 87.08-15.63L87.08-15.63Q87.08-12.19 88.71-9.34 90.34-6.49 93.1-4.81 95.86-3.13 99.3-3.13L99.3-3.13Q102.6-3.13 105.27-4.69 107.94-6.25 109.54-8.78L109.54-8.78 110.69-3.99Q108.46-1.88 105.55-0.63 102.63 0.63 99.3 0.63ZM124.99 0.42L124.99 0.42Q121.97 0.42 119.47-1.04 116.97-2.5 115.49-4.97 114.02-7.43 114.02-10.42L114.02-10.42Q114.02-13.44 115.49-15.89 116.97-18.33 119.47-19.79 121.97-21.25 124.99-21.25L124.99-21.25Q128.05-21.25 130.53-19.79 133.01-18.33 134.49-15.89 135.96-13.44 135.96-10.42L135.96-10.42Q135.96-7.43 134.49-4.97 133.01-2.5 130.53-1.04 128.05 0.42 124.99 0.42ZM124.99-3.13L124.99-3.13Q127-3.13 128.64-4.11 130.27-5.1 131.24-6.75 132.21-8.4 132.21-10.42L132.21-10.42Q132.21-12.43 131.24-14.08 130.27-15.73 128.64-16.72 127-17.71 124.99-17.71L124.99-17.71Q122.98-17.71 121.34-16.72 119.71-15.73 118.74-14.08 117.77-12.43 117.77-10.42L117.77-10.42Q117.77-8.4 118.74-6.75 119.71-5.1 121.34-4.11 122.98-3.13 124.99-3.13ZM144.92 0L141.17 0 141.17-20.83 144.64-20.83 144.64-17.47Q145.79-19.31 147.61-20.28 149.43-21.25 151.55-21.25L151.55-21.25Q153.77-21.25 155.66-20.16 157.56-19.06 158.74-17 159.92-14.93 159.92-11.98L159.92-11.98 159.92 0 156.17 0 156.17-11.46Q156.17-13.92 154.69-15.82 153.22-17.71 150.54-17.71L150.54-17.71Q148.36-17.71 146.64-16.13 144.92-14.55 144.92-11.56L144.92-11.56 144.92 0ZM169.92 0L166.17 0 166.17-20.83 169.64-20.83 169.64-17.47Q170.78-19.31 172.61-20.28 174.43-21.25 176.55-21.25L176.55-21.25Q178.77-21.25 180.66-20.16 182.55-19.06 183.74-17 184.92-14.93 184.92-11.98L184.92-11.98 184.92 0 181.17 0 181.17-11.46Q181.17-13.92 179.69-15.82 178.21-17.71 175.54-17.71L175.54-17.71Q173.35-17.71 171.63-16.13 169.92-14.55 169.92-11.56L169.92-11.56 169.92 0ZM201.09 0.42L201.09 0.42Q197.83 0.42 195.24-1.04 192.66-2.5 191.18-5.02 189.7-7.53 189.7-10.63L189.7-10.63Q189.7-13.58 191.13-15.99 192.55-18.4 194.97-19.83 197.38-21.25 200.3-21.25L200.3-21.25Q203.18-21.25 205.57-19.88 207.97-18.51 209.39-16.18 210.82-13.85 210.82-10.9L210.82-10.9 210.82-9.38 197.2-9.38Q196.3-9.38 195.36-9.44 194.43-9.51 193.52-9.65L193.52-9.65Q193.91-6.88 196.04-5 198.18-3.13 201.13-3.13L201.13-3.13Q203.11-3.13 204.81-4.03 206.51-4.93 207.55-6.42L207.55-6.42 208.59-2.15Q207.1-0.94 205.17-0.26 203.25 0.42 201.09 0.42ZM193.42-12.19L193.42-12.19Q195.3-12.5 197.2-12.5L197.2-12.5 204.11-12.5Q204.88-12.5 205.62-12.45 206.37-12.4 207.14-12.33L207.14-12.33Q206.65-14.76 204.7-16.34 202.76-17.92 200.3-17.92L200.3-17.92Q197.76-17.92 195.85-16.23 193.94-14.55 193.42-12.19ZM225.4 0.42L225.4 0.42Q222.34 0.42 219.84-1.04 217.34-2.5 215.85-4.97 214.36-7.43 214.36-10.42L214.36-10.42Q214.36-13.4 215.85-15.87 217.34-18.33 219.84-19.79 222.34-21.25 225.4-21.25L225.4-21.25Q227.65-21.25 229.63-20.45 231.61-19.65 233.11-18.33L233.11-18.33 231.96-13.61Q231.09-15.35 229.34-16.53 227.58-17.71 225.36-17.71L225.36-17.71Q223.35-17.71 221.7-16.72 220.05-15.73 219.08-14.08 218.11-12.43 218.11-10.42L218.11-10.42Q218.11-8.44 219.08-6.77 220.05-5.1 221.7-4.11 223.35-3.13 225.36-3.13L225.36-3.13Q227.58-3.13 229.34-4.27 231.09-5.42 231.96-7.22L231.96-7.22 233.11-2.5Q231.61-1.18 229.63-0.38 227.65 0.42 225.4 0.42ZM243.87 0L240.12 0 240.12-17.71 235.39-17.71 235.39-20.83 240.22-20.83 240.22-27.78 243.76-27.78 243.76-20.83 248.94-20.83 248.94-17.71 243.87-17.71 243.87 0Z"/></svg></g></svg></g></svg></g></svg></g><g transform="matrix(1,0,0,1,69.0821544835755,0)"><svg width="53.835691032849" height="35.25865758091993" viewBox="0 0 53.835691032849 35.25865758091993"><g><svg id="icon-0" data-fill-palette-color="accent" class="icon-icon-0" width="53.835691032849" height="35.25865758091993" y="0" x="0" viewBox="4.74 20.676999999999996 90.521 59.28500000000001" xml:space="preserve" xmlns="http://www.w3.org/2000/svg"><path data-fill-palette-color="accent" fill="#396f78" d="M88.743 79.962H42.737V47.936H25.889v32.026H12.197V35.727h76.546z m-44.706-1.301h43.406V37.026H13.497v41.635H24.59V46.636h19.447zM76.432 58.53h-6.733v-6.733h-6.24v6.733h-6.732v6.24h6.732v6.734h6.24V64.77h6.733z m18.829-21.504H4.74l7.694-16.349h76.095zM6.789 35.727H93.32l-5.662-13.749H13.259z"/><path d="M5 20.848h90v58.945H5z" fill="none"/></svg></g></svg></g><g/></svg></g></svg></g></svg></g></svg></g><defs/></svg><rect visibility="hidden" stroke="none" fill="none" height="360" width="320"/></g></svg></g></svg>